<svg width="144" height="92" viewBox="0 0 144 92" fill="none" xmlns="http://www.w3.org/2000/svg">
<path d="M27 91.476C20.52 91.476 15.3 90.756 11.34 89.316C7.38 87.876 4.5 86.04 2.7 83.808C0.900001 81.576 1.2368e-06 79.272 1.2368e-06 76.896C1.2368e-06 74.664 0.504001 72.684 1.512 70.956C2.592 69.3 3.888 67.86 5.4 66.636C6.984 65.412 8.496 64.512 9.936 63.936C7.632 63.144 5.796 62.1 4.428 60.804C3.132 59.436 2.484 57.636 2.484 55.404C2.484 52.884 3.492 50.544 5.508 48.384C7.524 46.152 10.116 44.784 13.284 44.28C9.972 42.696 7.308 40.5 5.292 37.692C3.348 34.884 2.376 31.608 2.376 27.864C2.376 23.544 3.492 19.8 5.724 16.632C7.956 13.392 10.8 10.908 14.256 9.18C17.784 7.38 21.42 6.48 25.164 6.48C27.54 6.48 29.916 6.84 32.292 7.56C34.668 8.208 36.864 9.18 38.88 10.476C39.6 8.46 40.608 6.66 41.904 5.076C43.272 3.492 44.82 2.268 46.548 1.404C48.276 0.468001 50.076 2.38419e-07 51.948 2.38419e-07C53.82 2.38419e-07 55.224 0.504 56.16 1.512C57.168 2.448 57.672 3.744 57.672 5.4C57.672 5.904 57.528 6.516 57.24 7.236C56.952 7.956 56.448 8.568 55.728 9.072C55.08 9.576 54.18 9.828 53.028 9.828C51.804 9.828 50.796 9.468 50.004 8.748C49.212 8.028 48.708 7.128 48.492 6.048C46.692 6.336 45.288 7.2 44.28 8.64C43.272 10.008 42.588 11.52 42.228 13.176C43.956 14.76 45.324 16.668 46.332 18.9C47.412 21.132 47.952 23.508 47.952 26.028C47.952 30.06 46.872 33.66 44.712 36.828C42.624 39.996 39.852 42.48 36.396 44.28C32.94 46.008 29.196 46.872 25.164 46.872C23.796 46.872 22.608 46.8 21.6 46.656C20.592 46.44 19.368 46.332 17.928 46.332C15.264 46.332 13.104 46.98 11.448 48.276C9.792 49.572 9.216 51.12 9.72 52.92C10.296 54.648 12.06 55.764 15.012 56.268C17.964 56.7 21.924 57.024 26.892 57.24C32.436 57.456 37.188 58.104 41.148 59.184C45.108 60.264 48.132 61.92 50.22 64.152C52.38 66.456 53.46 69.552 53.46 73.44C53.46 76.32 52.668 78.876 51.084 81.108C49.572 83.412 47.52 85.32 44.928 86.832C42.408 88.344 39.564 89.496 36.396 90.288C33.3 91.08 30.168 91.476 27 91.476ZM26.892 87.264C33.084 87.264 37.908 86.112 41.364 83.808C44.82 81.504 46.548 78.804 46.548 75.708C46.548 73.044 45.648 70.992 43.848 69.552C42.048 68.184 39.6 67.212 36.504 66.636C33.408 66.132 29.844 65.844 25.812 65.772C23.868 65.7 21.96 65.592 20.088 65.448C18.216 65.376 16.416 65.196 14.688 64.908C12.744 66.204 11.232 67.788 10.152 69.66C9.072 71.532 8.532 73.512 8.532 75.6C8.532 79.128 10.188 81.936 13.5 84.024C16.884 86.184 21.348 87.264 26.892 87.264ZM25.488 42.984C28.152 42.984 30.348 42.336 32.076 41.04C33.876 39.744 35.208 37.98 36.072 35.748C37.008 33.516 37.476 30.996 37.476 28.188C37.476 25.02 37.008 22.068 36.072 19.332C35.136 16.596 33.732 14.4 31.86 12.744C30.06 11.088 27.756 10.26 24.948 10.26C21.06 10.26 18.036 11.736 15.876 14.688C13.788 17.568 12.744 21.168 12.744 25.488C12.744 28.944 13.248 32.004 14.256 34.668C15.264 37.26 16.704 39.312 18.576 40.824C20.52 42.264 22.824 42.984 25.488 42.984ZM80.298 62.532L66.15 21.06C65.646 19.548 65.178 18.252 64.746 17.172C64.386 16.092 64.098 15.156 63.882 14.364C63.666 13.572 63.486 12.888 63.342 12.312L57.618 12.636V8.208H80.514V11.448C77.274 11.52 75.474 12.636 75.114 14.796C74.826 16.884 75.258 19.656 76.41 23.112L81.378 38.232C81.954 39.96 82.53 41.724 83.106 43.524C83.682 45.252 84.258 46.98 84.834 48.708C85.482 46.764 86.13 44.82 86.778 42.876C87.498 40.86 88.182 38.844 88.83 36.828L98.442 8.208H102.87L113.778 39.636C114.354 41.22 114.93 42.84 115.506 44.496C116.082 46.152 116.658 47.808 117.234 49.464C117.81 47.88 118.35 46.332 118.854 44.82C119.43 43.236 119.97 41.652 120.474 40.068L127.602 19.548C128.106 18.108 128.61 16.74 129.114 15.444C129.618 14.148 130.194 13.104 130.842 12.312L124.578 12.636V8.208H143.37V11.448C141.498 11.52 139.95 11.772 138.726 12.204C137.574 12.636 136.602 13.212 135.81 13.932C135.018 14.652 134.37 15.516 133.866 16.524C133.362 17.532 132.894 18.684 132.462 19.98L116.91 62.532H112.59L102.33 33.048C101.898 31.752 101.466 30.492 101.034 29.268C100.602 27.972 100.17 26.712 99.738 25.488C99.306 24.192 98.874 22.932 98.442 21.708C98.01 22.932 97.578 24.192 97.146 25.488C96.714 26.712 96.282 27.972 95.85 29.268C95.418 30.492 94.986 31.752 94.554 33.048L84.402 62.532H80.298Z" fill="black"/>
</svg>
